<svg aria-hidden="true" style="position: absolute; width: 0; height: 0; overflow: hidden;" version="1.1" xmlns="http://www.w3.org/2000/svg" xmlns:xlink="http://www.w3.org/1999/xlink">
<defs>
<symbol id="icon-undo" viewBox="0 0 32 32">
<path d="M23.808 32c3.554-6.439 4.153-16.26-9.808-15.932v7.932l-12-12 12-12v7.762c16.718-0.436 18.58 14.757 9.808 24.238z"></path>
</symbol>
<symbol id="icon-redo" viewBox="0 0 32 32">
<path d="M18 7.762v-7.762l12 12-12 12v-7.932c-13.961-0.328-13.362 9.493-9.808 15.932-8.772-9.482-6.909-24.674 9.808-24.238z"></path>
</symbol>
<symbol id="star" width="32" height="32" xmlns="http://www.w3.org/2000/svg" viewBox="0 0 32 32">
    <path d="M31.547 12a.848.848 0 00-.677-.577l-9.427-1.376-4.224-8.532a.847.847 0 00-1.516 0l-4.218 8.534-9.427 1.355a.847.847 0 00-.467 1.467l6.823 6.664-1.612 9.375a.847.847 0 001.23.893l8.428-4.434 8.432 4.432a.847.847 0 001.229-.894l-1.615-9.373 6.822-6.665a.845.845 0 00.214-.869z" />
</symbol>
</defs>
</svg>
